<?xml version="1.0" encoding="UTF-8"?>
<svg id="Layer_2" data-name="Layer 2" xmlns="http://www.w3.org/2000/svg" xmlns:xlink="http://www.w3.org/1999/xlink" viewBox="0 0 605 114.37">
  <defs>
    
    <linearGradient id="linear-gradient" x1="18.28" y1="78.35" x2="54" y2="99.65" gradientUnits="userSpaceOnUse">
      <stop offset="0" stop-color="#5855f7"></stop>
      <stop offset="1" stop-color="#403de3"></stop>
    </linearGradient>
    <linearGradient id="linear-gradient-2" x1="1464.6" y1="-11854.74" x2="1500.32" y2="-11833.43" gradientTransform="translate(1533.06 -11818.72) rotate(-180)" xlink:href="#linear-gradient"></linearGradient>
  </defs>
  <g id="Logo_Wide_Color">
    <g id="Name">
      <path class="cls-2" d="M119.11,67.66h12.05c.72,6.64,5.82,9.19,12.57,9.19s10.52-2.76,10.52-7.36c0-5.11-4.9-6.23-10.93-7.25l-4.6-.72c-8.68-1.43-18.29-3.98-18.29-16.86,0-10.22,8.89-17.37,22.07-17.37s21.56,7.76,22.27,17.98h-11.85c-.41-4.6-3.88-8.27-10.62-8.27-5.82,0-9.81,2.55-9.81,6.95s4.6,6.03,9.91,6.84l5.21.92c9.71,1.53,18.8,4.6,18.8,16.75,0,10.83-8.68,18.08-22.88,18.08-13.28,0-23.6-6.54-24.42-18.9Z"></path>
      <path class="cls-2" d="M188.81,85.53h-12.36v-46.38h-9.09v-10.83h21.45v57.21ZM188.81,8.91v15.12h-12.36v-15.12h12.36Z"></path>
      <path class="cls-2" d="M205.24,71.33v-32.18h-12.16v-10.83h12.16V8.91h12.26v19.41h20.84v10.83h-20.84v29.01c0,4.6,2.04,6.64,6.85,6.64h10.93v10.73h-14.2c-10.11,0-15.84-4.7-15.84-14.2Z"></path>
      <path class="cls-2" d="M238.18,56.42c0-15.94,12.46-29.12,29.63-29.12s27.79,10.73,27.79,27.28c0,1.74-.1,3.37-.31,5.21h-44.24c1.23,9.09,7.05,15.83,17.37,15.83,7.56,0,12.67-2.76,15.12-8.68h12.36c-3.06,11.54-13.18,19.62-27.79,19.62-17.88,0-29.93-12.67-29.93-30.14ZM251.26,51.41h32.28c-.41-7.36-6.03-13.08-15.63-13.08-8.17,0-14.81,5.01-16.65,13.08Z"></path>
      <path class="cls-2" d="M303.7,85.53V28.32h12.26v6.44c3.27-4.39,8.48-7.46,15.43-7.46,11.44,0,18.8,7.46,18.8,19.92v38.31h-12.26v-34.84c0-7.76-4.19-11.44-10.52-11.44s-11.44,4.7-11.44,12.36v33.92h-12.26Z"></path>
      <path class="cls-2" d="M357.2,56.93c0-16.45,13.59-29.63,30.24-29.63s30.14,13.18,30.14,29.63-13.49,29.63-30.14,29.63-30.24-13.18-30.24-29.63ZM404.7,56.93c0-10.83-7.76-18.18-17.27-18.18s-17.47,7.36-17.47,18.18,7.87,18.18,17.47,18.18,17.27-7.36,17.27-18.18Z"></path>
      <path class="cls-2" d="M432.21,85.53l-13.89-57.21h12.97l10.11,46.38h2.76l11.54-46.38h14.1l11.65,46.38h2.66l9.81-46.38h12.87l-13.28,57.21h-19.92l-10.83-41.68-10.62,41.68h-19.92Z"></path>
      <path class="cls-2" d="M517.93,71.23v14.3h-8.17v-14.3h8.17Z"></path>
      <path class="cls-2" d="M524.56,57.24c0-16.14,12.26-29.32,27.48-29.32,8.58,0,16.14,4.09,21.25,10.52v-9.5h8.17v56.6h-8.17v-9.5c-5.11,6.44-12.67,10.52-21.25,10.52-15.22,0-27.48-13.18-27.48-29.32ZM573.29,57.24c0-12.77-9.09-21.25-20.13-21.25s-19.92,8.48-19.92,21.25,8.99,21.25,19.92,21.25,20.13-8.48,20.13-21.25Z"></path>
      <path class="cls-2" d="M605,85.53h-8.17v-48.83h-9.91v-7.76h18.08v56.6ZM605,8.91v15.12h-8.17v-15.12h8.17Z"></path>
    </g>
    <g id="Symbol">
      <path class="cls-3" d="M55.68,114.37h0s-47.66-27.52-47.66-27.52c-1.44-.83-1.6-2.21-1.6-2.77s.16-1.93,1.6-2.77l19.82-11.44,24.21,13.98c2.24,1.29,3.63,3.7,3.63,6.29v24.22Z"></path>
      <path class="cls-3" d="M86.74,95.97c0,2.59-1.38,4.99-3.63,6.29l-20.98,12.11v-24.22c0-4.89-2.63-9.44-6.86-11.88l-20.98-12.11,20.64-11.92c2.46-1.42,5.48-1.42,7.94,0l20.24,11.68c2.24,1.29,3.63,3.7,3.63,6.29v23.76Z"></path>
      <path class="cls-1" d="M31.07,0h0s47.66,27.52,47.66,27.52c1.44.83,1.6,2.21,1.6,2.77s-.16,1.93-1.6,2.77l-19.82,11.44-24.21-13.98c-2.24-1.29-3.63-3.7-3.63-6.29V0Z"></path>
      <path class="cls-1" d="M0,18.4c0-2.59,1.38-4.99,3.63-6.29L24.61,0v24.22c0,4.89,2.63,9.44,6.86,11.88l20.98,12.11-20.64,11.92c-2.46,1.42-5.48,1.42-7.94,0L3.63,48.45C1.39,47.16,0,44.75,0,42.16v-23.76Z"></path>
    </g>
  </g>
</svg>